<svg width="30" height="15" viewBox="0 0 30 15" fill="none" xmlns="http://www.w3.org/2000/svg">
<path fill-rule="evenodd" clip-rule="evenodd" d="M11.1091 3.78247C11.3441 3.025 12.181 2.46301 13.1648 2.46301H16.9531C17.9369 2.46301 18.7739 3.025 19.0088 3.78247H11.1091ZM24.1481 3.78169H21.2408C20.9618 2.0106 19.1557 0.630371 16.9532 0.630371H13.1648C10.9623 0.630371 9.15622 2.0106 8.87723 3.78169H5.98457C2.90102 3.78169 0.390137 5.87036 0.390137 8.43539C0.390137 8.43539 0.463554 10.4386 0.507605 11.0615C0.507605 11.1836 0.581023 11.2936 0.698491 11.3546L2.10811 12.1608C4.5309 13.4812 7.36335 14.4253 10.3559 14.8968C10.5512 14.9274 10.742 14.8455 10.8434 14.7038C11.7141 13.4983 13.3087 12.7227 15.059 12.7227C16.821 12.7227 18.401 13.5068 19.2468 14.7112C19.3466 14.8553 19.5404 14.9396 19.7372 14.9078C22.7547 14.4376 25.5871 13.4922 28.0246 12.1486C28.0833 12.1242 28.7294 11.7699 29.4357 11.3412C29.5517 11.2704 29.6221 11.1531 29.6251 11.0334C29.6545 9.52126 29.7426 8.43539 29.7426 8.43539C29.7426 5.87036 27.2317 3.78169 24.1481 3.78169Z" fill="#230B34"/>
</svg>
