<svg width="29" height="12" viewBox="0 0 29 12" fill="none" xmlns="http://www.w3.org/2000/svg">
<path fill-rule="evenodd" clip-rule="evenodd" d="M28.6483 0.665826C28.619 0.677656 28.5897 0.689486 28.5897 0.689486C25.6296 2.27476 22.0687 3.32766 18.332 3.76539C17.8044 3.82454 17.2769 3.55244 17.1304 3.12655C16.808 2.15646 15.7676 1.51761 14.522 1.51761H14.5073H14.478C13.2324 1.51761 12.192 2.15646 11.8696 3.12655C11.7231 3.55244 11.1956 3.82454 10.668 3.76539C6.93128 3.32766 3.37039 2.27476 0.410308 0.689486C0.395654 0.677656 0.249116 0.606674 0.131885 0.665826C0 0.724978 0 0.866942 0 0.866942L0.102577 6.90044C0.102577 9.38483 2.59373 11.396 5.67105 11.396H23.3143C26.3916 11.396 28.8828 9.38483 28.8828 6.90044L29 0.866942C29 0.866942 29 0.724978 28.8681 0.665826C28.7948 0.630334 28.7069 0.642165 28.6483 0.665826Z" fill="#230B34"/>
</svg>
